<svg xmlns="http://www.w3.org/2000/svg" viewBox="0 0 238 238"><defs><style>.cls-1{fill:#57b6ff;}</style></defs><g id="Capa_2" data-name="Capa 2"><g id="Capa_1-2" data-name="Capa 1"><path class="cls-1" d="M208.25,0H29.75A29.78,29.78,0,0,0,0,29.75v178.5A29.78,29.78,0,0,0,29.75,238H119V156.19H89.25V119H119V89.25a44.62,44.62,0,0,1,44.63-44.62h29.75V81.81H178.5c-8.21,0-14.87-.77-14.87,7.44V119h37.18l-14.87,37.19H163.63V238h44.62A29.78,29.78,0,0,0,238,208.25V29.75A29.78,29.78,0,0,0,208.25,0Z"/></g></g></svg>