<svg xmlns="http://www.w3.org/2000/svg" width="216.594" height="216.594" viewBox="0 0 216.594 216.594">
  <path id="gear" d="M211.5,83.635,194.85,80.016A90.6,90.6,0,0,0,189.493,67.1l9.216-14.335a6.473,6.473,0,0,0-.868-8.076L171.907,18.752a6.473,6.473,0,0,0-8.076-.868L149.5,27.1a90.6,90.6,0,0,0-12.919-5.357L132.958,5.1A6.472,6.472,0,0,0,126.634,0H89.959a6.472,6.472,0,0,0-6.324,5.1L80.016,21.743A90.6,90.6,0,0,0,67.1,27.1L52.762,17.885a6.473,6.473,0,0,0-8.076.868L18.752,44.686a6.473,6.473,0,0,0-.868,8.076L27.1,67.1a90.6,90.6,0,0,0-5.357,12.919L5.1,83.635A6.473,6.473,0,0,0,0,89.959v36.675a6.473,6.473,0,0,0,5.1,6.324l16.647,3.619A90.6,90.6,0,0,0,27.1,149.5l-9.216,14.335a6.473,6.473,0,0,0,.868,8.076l25.934,25.934a6.473,6.473,0,0,0,8.076.868L67.1,189.493a90.6,90.6,0,0,0,12.919,5.357L83.635,211.5a6.472,6.472,0,0,0,6.324,5.1h36.675a6.472,6.472,0,0,0,6.324-5.1l3.619-16.647a90.594,90.594,0,0,0,12.919-5.357l14.335,9.216a6.471,6.471,0,0,0,8.076-.868l25.934-25.934a6.473,6.473,0,0,0,.868-8.076L189.493,149.5a90.6,90.6,0,0,0,5.357-12.919l16.647-3.619a6.473,6.473,0,0,0,5.1-6.324V89.959A6.473,6.473,0,0,0,211.5,83.635ZM147.128,108.3A38.832,38.832,0,1,1,108.3,69.465,38.876,38.876,0,0,1,147.128,108.3Zm0,0" transform="translate(0 0)" fill="#0d1630"/>
</svg>
