<svg xmlns="http://www.w3.org/2000/svg" viewBox="0 0 242 242"><defs><style>.cls-1{fill:#57b6ff;}</style></defs><g id="Capa_2" data-name="Capa 2"><g id="Capa_1-2" data-name="Capa 1"><path class="cls-1" d="M166.38,0H75.63A75.63,75.63,0,0,0,0,75.63v90.75A75.63,75.63,0,0,0,75.63,242h90.75A75.62,75.62,0,0,0,242,166.38V75.63A75.63,75.63,0,0,0,166.38,0Zm52.93,166.38a53,53,0,0,1-52.93,52.93H75.63a53,53,0,0,1-52.94-52.93V75.63A53,53,0,0,1,75.63,22.69h90.75a53,53,0,0,1,52.93,52.94Z"/><path class="cls-1" d="M121,60.5A60.5,60.5,0,1,0,181.5,121,60.5,60.5,0,0,0,121,60.5Zm0,98.31A37.81,37.81,0,1,1,158.81,121,37.86,37.86,0,0,1,121,158.81Z"/><circle class="cls-1" cx="186.04" cy="55.96" r="8.06"/></g></g></svg>