<svg id="lamp" xmlns="http://www.w3.org/2000/svg" width="243.095" height="243.095" viewBox="0 0 243.095 243.095">
  <path id="Trazado_13594" data-name="Trazado 13594" d="M18.847,35.016a7.6,7.6,0,0,1-7.6-7.6V7.6a7.6,7.6,0,0,1,15.193,0V27.419A7.6,7.6,0,0,1,18.847,35.016Z" transform="translate(102.701)" fill="#0d1630"/>
  <path id="Trazado_13595" data-name="Trazado 13595" d="M25.415,32.514a7.6,7.6,0,0,1-5.368-12.975L34.066,5.52A7.6,7.6,0,0,1,44.812,16.267L30.794,30.285A7.62,7.62,0,0,1,25.415,32.514Z" transform="translate(162.689 30.073)" fill="#0d1630"/>
  <path id="Trazado_13596" data-name="Trazado 13596" d="M47.962,26.443H28.14a7.6,7.6,0,1,1,0-15.193H47.962a7.6,7.6,0,0,1,0,15.193Z" transform="translate(187.536 102.701)" fill="#0d1630"/>
  <path id="Trazado_13597" data-name="Trazado 13597" d="M39.434,47.04a7.537,7.537,0,0,1-5.368-2.228L20.047,30.793A7.6,7.6,0,0,1,30.794,20.046L44.812,34.065A7.6,7.6,0,0,1,39.434,47.04Z" transform="translate(162.689 162.68)" fill="#0d1630"/>
  <path id="Trazado_13598" data-name="Trazado 13598" d="M10.889,47.04A7.6,7.6,0,0,1,5.521,34.065L19.54,20.046A7.6,7.6,0,1,1,30.286,30.793L16.268,44.811A7.577,7.577,0,0,1,10.889,47.04Z" transform="translate(30.082 162.68)" fill="#0d1630"/>
  <path id="Trazado_13599" data-name="Trazado 13599" d="M27.419,26.443H7.6a7.6,7.6,0,0,1,0-15.193H27.419a7.6,7.6,0,0,1,0,15.193Z" transform="translate(0 102.701)" fill="#0d1630"/>
  <path id="Trazado_13600" data-name="Trazado 13600" d="M24.908,32.514a7.537,7.537,0,0,1-5.368-2.228L5.521,16.267A7.6,7.6,0,0,1,16.268,5.52L30.286,19.539a7.6,7.6,0,0,1-5.378,12.975Z" transform="translate(30.082 30.073)" fill="#0d1630"/>
  <path id="Trazado_13601" data-name="Trazado 13601" d="M69.774,21V33.661A17.811,17.811,0,0,1,52.048,51.387H26.726C18.217,51.387,9,44.9,9,30.724V21Z" transform="translate(82.161 191.708)" fill="#0d1630"/>
  <path id="Trazado_13602" data-name="Trazado 13602" d="M120.583,20.789A71.166,71.166,0,0,0,60.721,6.608C33.879,12.179,12.1,34.058,6.531,60.9a70.965,70.965,0,0,0,26.74,71.612,30.585,30.585,0,0,1,11.547,19.346v.1a1.724,1.724,0,0,1,.709-.1H106.3a.913.913,0,0,1,.506.1v-.1c1.418-7.7,5.976-14.788,12.965-20.258a70.942,70.942,0,0,0,.81-110.811ZM113.9,80.955a7.652,7.652,0,0,1-7.6-7.6A27.839,27.839,0,0,0,78.447,45.5a7.6,7.6,0,1,1,0-15.193,43.142,43.142,0,0,1,43.048,43.048A7.652,7.652,0,0,1,113.9,80.955Z" transform="translate(45.633 45.657)" fill="#0d1630"/>
  <path id="Trazado_13603" data-name="Trazado 13603" d="M8.93,19.5h.709a1.724,1.724,0,0,0-.709.1Z" transform="translate(81.521 178.014)" fill="#0d1630"/>
  <path id="Trazado_13604" data-name="Trazado 13604" d="M15.506,19.5v.1A.913.913,0,0,0,15,19.5Z" transform="translate(136.934 178.014)" fill="#0d1630"/>
</svg>
