<svg xmlns="http://www.w3.org/2000/svg" viewBox="0 0 205 205"><defs><style>.cls-1{fill:#57b6ff;}</style></defs><g id="Capa_2" data-name="Capa 2"><g id="Capa_1-2" data-name="Capa 1"><path class="cls-1" d="M186.46,0H18.54A18.54,18.54,0,0,0,0,18.54V186.46A18.54,18.54,0,0,0,18.54,205H186.46A18.54,18.54,0,0,0,205,186.46V18.54A18.54,18.54,0,0,0,186.46,0ZM63.2,176.48a5.4,5.4,0,0,1-5.4,5.4H34.68a5.39,5.39,0,0,1-5.39-5.4V80.92a5.39,5.39,0,0,1,5.39-5.39H57.8a5.39,5.39,0,0,1,5.4,5.39ZM45.78,66.24A21.83,21.83,0,1,1,67.61,44.42,21.82,21.82,0,0,1,45.78,66.24ZM181.88,177a4.94,4.94,0,0,1-4.95,4.93h-24a5,5,0,0,1-5-5V131.75c0-6.74,2-29.53-17.85-29.53-15.39,0-18.52,15.6-19.14,22.6v52.1a5,5,0,0,1-5,5H82a5,5,0,0,1-5-5V80.49a5,5,0,0,1,5-5h24a5,5,0,0,1,5,5V88.8c5.62-8.4,14-14.88,31.75-14.88,39.38,0,39.15,36.62,39.15,56.75Z"/></g></g></svg>