<svg xmlns="http://www.w3.org/2000/svg" viewBox="0 0 284.53 276.51"><defs><style>.cls-1{fill:#31c5f4;}</style></defs><g id="Layer_2" data-name="Layer 2"><g id="Capa_1" data-name="Capa 1"><path class="cls-1" d="M262.48,63C240.3,29.31,209.38,8.53,170,.35c-8.46-1.75-15.13,3.19-15.81,11.56-.14,1.66-.09,3.33-.08,5q0,50.48.1,101c0,5.21-.58,5.56-5.47,4.15-4.63-1.33-9.23-2.86-13.95-3.77s-6.46-3.5-6.43-8.31c.21-31.32.23-62.64.26-94,0-12.39-6.15-17.15-18.31-14.45C71.77,10.09,42.6,32.2,21.54,64.76c-22,34.06-26.81,71.91-16,110.36C20.71,228.74,57,262,111.06,275.63c11.72,2.95,17.39-2.15,17.42-14.24,0-17,0-34,0-51,0-17.66.07-35.32-.06-53,0-3.43.68-4.46,4.24-3.35,4.59,1.44,9.37,2.29,14.06,3.41,7.44,1.77,7.45,1.78,7.45,9.61q0,47.73,0,95.46c0,10.62,5.54,15.2,15.9,13.66A107.18,107.18,0,0,0,193.16,270C284.84,234.37,306.69,130.05,262.48,63ZM98.84,246.17c-36.43-14.53-59.79-41.06-70.1-78.49-15-54.41,14-113.28,65.73-135.3,9.17-3.91,9.17-3.91,9.17,5.92,0,23.82-.07,47.64.08,71.45,0,3.54-.77,5.67-4.41,6.45-1.93.41-3.71,1.5-5.64,2-19.5,4.64-27,20-33.12,36.75-.82,2.24-.54,4.31,1.49,5.81a6.5,6.5,0,0,0,7.5.25c1.95-1.09,3.14-3,4.34-4.76,6.58-9.81,16.42-10.94,27-10.27,3.28.21,2.88,2.55,2.88,4.72q0,23.24,0,46.47c0,15.16-.15,30.32.09,45.47C103.88,247,102.93,247.8,98.84,246.17Zm88.28-.2c-8.42,3.21-8.42,3.21-8.42-5.9,0-24.15,0-48.3-.15-72.45,0-4.22,1.2-6.55,5.56-7.2,13.95-2.11,23.91-10.34,31.7-21.5,3-4.35,5.37-9.19,8.08-13.77,1.46-2.46,1-4.48-1.3-6s-4.59-3.75-7.59-1.39a41.85,41.85,0,0,0-4.1,3.66c-7.94,8.12-18.33,8.79-28.69,9.24-3.44.15-3.61-2.7-3.6-5.36q0-23,0-46h.08c0-15.32.14-30.65-.09-46-.07-4.45,1-5,5.08-3.54,35.39,12.94,58.68,37.82,70.66,73C273.74,159.86,243,224.69,187.12,246Z"/></g></g></svg>