<svg xmlns="http://www.w3.org/2000/svg" width="178.781" height="178.782" viewBox="0 0 178.781 178.782">
  <g id="Grupo_3136" data-name="Grupo 3136" transform="translate(-1419.227 -1399.893)">
    <path id="Icon_awesome-pencil-alt" data-name="Icon awesome-pencil-alt" d="M173.859,49.6l-16.1,16.1a4.194,4.194,0,0,1-5.936,0L113.063,26.937a4.194,4.194,0,0,1,0-5.936l16.1-16.1a16.8,16.8,0,0,1,23.71,0l20.987,20.987A16.734,16.734,0,0,1,173.859,49.6ZM99.235,34.829l-91.7,91.7-7.4,42.427a8.391,8.391,0,0,0,9.708,9.708l42.427-7.438,91.7-91.7a4.194,4.194,0,0,0,0-5.936L105.206,34.829a4.236,4.236,0,0,0-5.971,0ZM43.329,118.671a4.869,4.869,0,0,1,0-6.914L97.105,57.981a4.889,4.889,0,0,1,6.914,6.914L50.243,118.671a4.869,4.869,0,0,1-6.914,0ZM30.723,148.039H47.484v12.676L24.961,164.66,14.1,153.8l3.946-22.523H30.723Z" transform="translate(1419.226 1399.887)" fill="#0d1630"/>
  </g>
</svg>
