<svg xmlns="http://www.w3.org/2000/svg" viewBox="0 0 245.8 245.8"><defs><style>.cls-1{fill:#57b6ff;}</style></defs><g id="Capa_2" data-name="Capa 2"><g id="Capa_1-2" data-name="Capa 1"><path class="cls-1" d="M122.9,0A122.9,122.9,0,1,0,245.8,122.9,122.91,122.91,0,0,0,122.9,0Zm61.22,103.53c.06,1.26.09,2.53.09,3.8,0,38.82-29.55,83.59-83.59,83.59a83.1,83.1,0,0,1-45-13.2,60.12,60.12,0,0,0,7,.41,59,59,0,0,0,36.49-12.58,29.42,29.42,0,0,1-27.45-20.4,29.54,29.54,0,0,0,5.53.53,29,29,0,0,0,7.74-1,29.39,29.39,0,0,1-23.57-28.8v-.37a29.27,29.27,0,0,0,13.31,3.68,29.41,29.41,0,0,1-9.09-39.23,83.38,83.38,0,0,0,60.55,30.7,29.05,29.05,0,0,1-.75-7.45,29.39,29.39,0,0,1,50.81-19.35,58.86,58.86,0,0,0,18.66-7.12A29.53,29.53,0,0,1,181.91,93a58.86,58.86,0,0,0,16.87-4.62A59.52,59.52,0,0,1,184.12,103.53Z"/></g></g></svg>