<svg xmlns="http://www.w3.org/2000/svg" viewBox="0 0 278 194.64"><defs><style>.cls-1{fill:#57b6ff;}</style></defs><g id="Capa_2" data-name="Capa 2"><g id="Capa_1-2" data-name="Capa 1"><path class="cls-1" d="M272.27,30.46A34.83,34.83,0,0,0,247.77,6C226,0,139,0,139,0S52,0,30.23,5.73A35.54,35.54,0,0,0,5.72,30.46C0,52.21,0,97.32,0,97.32s0,45.34,5.72,66.87a34.86,34.86,0,0,0,24.51,24.5c22,5.95,108.77,5.95,108.77,5.95s87,0,108.77-5.72a34.83,34.83,0,0,0,24.5-24.5C278,142.66,278,97.55,278,97.55S278.23,52.21,272.27,30.46ZM111.31,139V55.65l72.36,41.67Z"/></g></g></svg>